<svg width="606" height="824" viewBox="0 0 606 824" fill="none" xmlns="http://www.w3.org/2000/svg">
<rect x="11.3549" y="11" width="583.29" height="802" rx="29" stroke="#ECDF7D" stroke-width="22"/>
<g filter="url(#filter0_i_24_38)">
<rect x="22.3549" y="22" width="561.29" height="780" rx="18" fill="#D9D9D9" fill-opacity="0.01"/>
</g>
<g filter="url(#filter1_d_24_38)">
<rect x="46.5484" y="74" width="512.903" height="340" fill="url(#paint0_linear_24_38)"/>
</g>
<path d="M226.054 813.364C226.054 812.975 226.148 812.621 226.338 812.302C226.527 811.982 226.782 811.728 227.101 811.538C227.421 811.349 227.775 811.254 228.163 811.254C228.499 811.254 228.809 811.326 229.093 811.471C229.38 811.615 229.617 811.813 229.804 812.064C229.991 812.312 230.107 812.594 230.152 812.909H229.292C229.245 812.665 229.114 812.466 228.898 812.312C228.683 812.156 228.438 812.078 228.163 812.078C227.926 812.078 227.711 812.136 227.517 812.252C227.323 812.368 227.168 812.523 227.052 812.717C226.936 812.911 226.878 813.127 226.878 813.364C226.878 813.6 226.936 813.816 227.052 814.01C227.168 814.204 227.323 814.359 227.517 814.475C227.711 814.591 227.926 814.649 228.163 814.649C228.438 814.649 228.67 814.572 228.859 814.418C229.051 814.262 229.172 814.062 229.221 813.818H230.081C230.036 814.133 229.926 814.416 229.75 814.667C229.575 814.915 229.35 815.112 229.076 815.256C228.803 815.401 228.499 815.473 228.163 815.473C227.775 815.473 227.421 815.378 227.101 815.189C226.782 815 226.527 814.745 226.338 814.425C226.148 814.106 226.054 813.752 226.054 813.364ZM228.128 817.114C227.611 817.114 227.126 817.017 226.672 816.822C226.219 816.628 225.821 816.36 225.475 816.016C225.132 815.671 224.862 815.272 224.665 814.82C224.471 814.367 224.375 813.882 224.378 813.364C224.38 812.845 224.478 812.36 224.672 811.908C224.869 811.455 225.139 811.058 225.482 810.714C225.825 810.369 226.223 810.099 226.675 809.905C227.127 809.711 227.611 809.614 228.128 809.614C228.646 809.614 229.131 809.711 229.584 809.905C230.038 810.099 230.436 810.369 230.777 810.714C231.12 811.058 231.389 811.455 231.583 811.908C231.777 812.36 231.875 812.845 231.878 813.364C231.88 813.882 231.784 814.367 231.59 814.82C231.396 815.272 231.127 815.671 230.784 816.016C230.441 816.36 230.042 816.628 229.587 816.822C229.133 817.017 228.646 817.114 228.128 817.114ZM228.128 816.29C228.532 816.29 228.912 816.214 229.267 816.062C229.623 815.911 229.934 815.701 230.201 815.434C230.469 815.166 230.678 814.856 230.83 814.504C230.982 814.148 231.056 813.77 231.054 813.367C231.051 812.962 230.974 812.582 230.823 812.227C230.671 811.872 230.462 811.561 230.194 811.293C229.927 811.026 229.617 810.816 229.264 810.665C228.911 810.513 228.532 810.438 228.128 810.438C227.725 810.438 227.348 810.513 226.995 810.665C226.642 810.816 226.332 811.027 226.064 811.297C225.797 811.564 225.586 811.876 225.432 812.231C225.281 812.584 225.204 812.962 225.201 813.367C225.199 813.767 225.274 814.145 225.425 814.5C225.577 814.853 225.786 815.163 226.054 815.43C226.324 815.698 226.635 815.909 226.988 816.062C227.343 816.214 227.723 816.29 228.128 816.29ZM233.457 817V816.361L235.858 813.733C236.139 813.425 236.371 813.158 236.554 812.93C236.736 812.701 236.871 812.485 236.958 812.284C237.048 812.08 237.093 811.867 237.093 811.645C237.093 811.389 237.032 811.168 236.909 810.981C236.788 810.794 236.622 810.649 236.411 810.548C236.201 810.446 235.964 810.395 235.701 810.395C235.422 810.395 235.178 810.453 234.97 810.569C234.764 810.683 234.604 810.842 234.49 811.048C234.379 811.254 234.323 811.496 234.323 811.773H233.485C233.485 811.347 233.584 810.973 233.78 810.651C233.977 810.329 234.244 810.078 234.583 809.898C234.924 809.718 235.306 809.628 235.73 809.628C236.156 809.628 236.533 809.718 236.862 809.898C237.192 810.078 237.45 810.32 237.637 810.626C237.824 810.931 237.917 811.271 237.917 811.645C237.917 811.912 237.869 812.174 237.772 812.43C237.677 812.683 237.511 812.966 237.274 813.278C237.04 813.589 236.715 813.967 236.298 814.415L234.664 816.162V816.219H238.045V817H233.457ZM241.884 817.099C241.349 817.099 240.893 816.954 240.517 816.663C240.14 816.369 239.853 815.944 239.654 815.388C239.455 814.829 239.355 814.154 239.355 813.364C239.355 812.578 239.455 811.906 239.654 811.35C239.855 810.791 240.144 810.365 240.52 810.072C240.899 809.776 241.353 809.628 241.884 809.628C242.414 809.628 242.867 809.776 243.244 810.072C243.623 810.365 243.911 810.791 244.11 811.35C244.312 811.906 244.412 812.578 244.412 813.364C244.412 814.154 244.313 814.829 244.114 815.388C243.915 815.944 243.627 816.369 243.251 816.663C242.875 816.954 242.419 817.099 241.884 817.099ZM241.884 816.318C242.414 816.318 242.826 816.062 243.12 815.551C243.413 815.04 243.56 814.311 243.56 813.364C243.56 812.734 243.492 812.198 243.358 811.755C243.225 811.312 243.033 810.975 242.782 810.743C242.534 810.511 242.234 810.395 241.884 810.395C241.358 810.395 240.947 810.654 240.652 811.173C240.356 811.689 240.208 812.419 240.208 813.364C240.208 813.993 240.274 814.528 240.407 814.969C240.539 815.409 240.73 815.744 240.978 815.974C241.229 816.203 241.531 816.318 241.884 816.318ZM245.762 817V816.361L248.162 813.733C248.444 813.425 248.676 813.158 248.858 812.93C249.041 812.701 249.175 812.485 249.263 812.284C249.353 812.08 249.398 811.867 249.398 811.645C249.398 811.389 249.336 811.168 249.213 810.981C249.093 810.794 248.927 810.649 248.716 810.548C248.505 810.446 248.269 810.395 248.006 810.395C247.727 810.395 247.483 810.453 247.274 810.569C247.068 810.683 246.909 810.842 246.795 811.048C246.684 811.254 246.628 811.496 246.628 811.773H245.79C245.79 811.347 245.888 810.973 246.085 810.651C246.281 810.329 246.549 810.078 246.887 809.898C247.228 809.718 247.611 809.628 248.034 809.628C248.46 809.628 248.838 809.718 249.167 809.898C249.496 810.078 249.754 810.32 249.941 810.626C250.128 810.931 250.222 811.271 250.222 811.645C250.222 811.912 250.173 812.174 250.076 812.43C249.982 812.683 249.816 812.966 249.579 813.278C249.345 813.589 249.019 813.967 248.603 814.415L246.969 816.162V816.219H250.35V817H245.762ZM254.274 817.099C253.805 817.099 253.387 817.019 253.02 816.858C252.656 816.697 252.366 816.473 252.15 816.187C251.937 815.898 251.821 815.563 251.802 815.182H252.697C252.716 815.416 252.796 815.619 252.938 815.789C253.081 815.957 253.266 816.087 253.496 816.18C253.726 816.272 253.98 816.318 254.259 816.318C254.572 816.318 254.849 816.264 255.09 816.155C255.332 816.046 255.521 815.894 255.659 815.7C255.796 815.506 255.865 815.281 255.865 815.026C255.865 814.758 255.798 814.522 255.666 814.319C255.533 814.113 255.339 813.952 255.083 813.836C254.828 813.72 254.515 813.662 254.146 813.662H253.563V812.881H254.146C254.435 812.881 254.688 812.829 254.906 812.724C255.126 812.62 255.298 812.473 255.421 812.284C255.546 812.095 255.609 811.872 255.609 811.616C255.609 811.37 255.554 811.156 255.446 810.974C255.337 810.791 255.183 810.649 254.984 810.548C254.787 810.446 254.555 810.395 254.288 810.395C254.037 810.395 253.8 810.441 253.578 810.533C253.358 810.623 253.178 810.755 253.038 810.928C252.898 811.098 252.822 811.304 252.811 811.545H251.958C251.973 811.164 252.087 810.83 252.303 810.544C252.518 810.255 252.8 810.03 253.148 809.869C253.498 809.708 253.883 809.628 254.302 809.628C254.752 809.628 255.138 809.719 255.46 809.901C255.782 810.081 256.029 810.319 256.202 810.615C256.375 810.911 256.461 811.231 256.461 811.574C256.461 811.983 256.353 812.333 256.138 812.621C255.925 812.91 255.635 813.11 255.268 813.222V813.278C255.727 813.354 256.086 813.549 256.344 813.864C256.602 814.177 256.731 814.564 256.731 815.026C256.731 815.421 256.623 815.776 256.408 816.091C256.195 816.403 255.904 816.65 255.534 816.83C255.165 817.009 254.745 817.099 254.274 817.099ZM261.124 817V809.727H263.581C264.152 809.727 264.618 809.83 264.98 810.036C265.345 810.24 265.615 810.516 265.79 810.864C265.965 811.212 266.053 811.6 266.053 812.028C266.053 812.457 265.965 812.846 265.79 813.197C265.617 813.547 265.35 813.826 264.987 814.035C264.625 814.241 264.161 814.344 263.595 814.344H261.834V813.562H263.567C263.958 813.562 264.271 813.495 264.508 813.36C264.745 813.225 264.916 813.043 265.023 812.813C265.132 812.581 265.186 812.32 265.186 812.028C265.186 811.737 265.132 811.477 265.023 811.247C264.916 811.018 264.744 810.838 264.505 810.707C264.265 810.575 263.948 810.509 263.553 810.509H262.005V817H261.124ZM269.515 817.114C269.023 817.114 268.591 816.996 268.219 816.762C267.85 816.528 267.561 816.2 267.353 815.778C267.147 815.357 267.044 814.865 267.044 814.301C267.044 813.733 267.147 813.237 267.353 812.813C267.561 812.389 267.85 812.06 268.219 811.826C268.591 811.592 269.023 811.474 269.515 811.474C270.008 811.474 270.438 811.592 270.808 811.826C271.179 812.06 271.468 812.389 271.674 812.813C271.883 813.237 271.987 813.733 271.987 814.301C271.987 814.865 271.883 815.357 271.674 815.778C271.468 816.2 271.179 816.528 270.808 816.762C270.438 816.996 270.008 817.114 269.515 817.114ZM269.515 816.361C269.889 816.361 270.197 816.265 270.438 816.073C270.68 815.881 270.859 815.629 270.975 815.317C271.091 815.004 271.149 814.666 271.149 814.301C271.149 813.937 271.091 813.597 270.975 813.282C270.859 812.967 270.68 812.713 270.438 812.518C270.197 812.324 269.889 812.227 269.515 812.227C269.141 812.227 268.833 812.324 268.592 812.518C268.35 812.713 268.172 812.967 268.056 813.282C267.94 813.597 267.882 813.937 267.882 814.301C267.882 814.666 267.94 815.004 268.056 815.317C268.172 815.629 268.35 815.881 268.592 816.073C268.833 816.265 269.141 816.361 269.515 816.361ZM274.047 815.011L274.033 813.974H274.204L276.59 811.545H277.627L275.084 814.116H275.013L274.047 815.011ZM273.266 817V809.727H274.104V817H273.266ZM276.732 817L274.601 814.301L275.198 813.719L277.797 817H276.732ZM280.768 817.114C280.242 817.114 279.789 816.998 279.408 816.766C279.029 816.531 278.737 816.205 278.531 815.786C278.327 815.364 278.225 814.874 278.225 814.315C278.225 813.757 278.327 813.264 278.531 812.838C278.737 812.41 279.023 812.076 279.39 811.837C279.759 811.595 280.19 811.474 280.683 811.474C280.967 811.474 281.247 811.522 281.524 811.616C281.801 811.711 282.053 811.865 282.281 812.078C282.508 812.289 282.689 812.568 282.824 812.916C282.959 813.264 283.026 813.693 283.026 814.202V814.557H278.822V813.832H282.174C282.174 813.525 282.113 813.25 281.989 813.009C281.869 812.767 281.696 812.576 281.471 812.437C281.248 812.297 280.986 812.227 280.683 812.227C280.349 812.227 280.06 812.31 279.816 812.476C279.575 812.639 279.389 812.852 279.259 813.115C279.128 813.378 279.063 813.66 279.063 813.96V814.443C279.063 814.855 279.134 815.204 279.276 815.491C279.421 815.775 279.621 815.991 279.877 816.141C280.132 816.287 280.429 816.361 280.768 816.361C280.988 816.361 281.187 816.33 281.364 816.268C281.544 816.205 281.699 816.11 281.83 815.984C281.96 815.857 282.06 815.698 282.131 815.509L282.941 815.736C282.856 816.01 282.713 816.252 282.511 816.46C282.31 816.666 282.062 816.827 281.766 816.943C281.47 817.057 281.137 817.114 280.768 817.114ZM284.301 817V811.545H285.111V812.398H285.182C285.296 812.107 285.479 811.88 285.732 811.719C285.986 811.556 286.29 811.474 286.645 811.474C287.005 811.474 287.304 811.556 287.543 811.719C287.785 811.88 287.973 812.107 288.108 812.398H288.165C288.305 812.116 288.514 811.892 288.793 811.727C289.073 811.558 289.408 811.474 289.798 811.474C290.286 811.474 290.685 811.627 290.995 811.933C291.305 812.236 291.46 812.708 291.46 813.349V817H290.622V813.349C290.622 812.947 290.512 812.659 290.292 812.487C290.072 812.314 289.813 812.227 289.514 812.227C289.131 812.227 288.834 812.343 288.623 812.575C288.412 812.805 288.307 813.096 288.307 813.449V817H287.455V813.264C287.455 812.954 287.354 812.704 287.153 812.515C286.952 812.323 286.692 812.227 286.375 812.227C286.157 812.227 285.954 812.285 285.764 812.401C285.577 812.517 285.426 812.678 285.31 812.884C285.196 813.088 285.139 813.323 285.139 813.591V817H284.301ZM295.28 817.114C294.754 817.114 294.301 816.998 293.919 816.766C293.541 816.531 293.248 816.205 293.042 815.786C292.839 815.364 292.737 814.874 292.737 814.315C292.737 813.757 292.839 813.264 293.042 812.838C293.248 812.41 293.535 812.076 293.902 811.837C294.271 811.595 294.702 811.474 295.194 811.474C295.478 811.474 295.759 811.522 296.036 811.616C296.313 811.711 296.565 811.865 296.792 812.078C297.02 812.289 297.201 812.568 297.336 812.916C297.471 813.264 297.538 813.693 297.538 814.202V814.557H293.334V813.832H296.686C296.686 813.525 296.624 813.25 296.501 813.009C296.38 812.767 296.208 812.576 295.983 812.437C295.76 812.297 295.497 812.227 295.194 812.227C294.861 812.227 294.572 812.31 294.328 812.476C294.086 812.639 293.901 812.852 293.77 813.115C293.64 813.378 293.575 813.66 293.575 813.96V814.443C293.575 814.855 293.646 815.204 293.788 815.491C293.932 815.775 294.133 815.991 294.388 816.141C294.644 816.287 294.941 816.361 295.28 816.361C295.5 816.361 295.699 816.33 295.876 816.268C296.056 816.205 296.211 816.11 296.341 815.984C296.472 815.857 296.572 815.698 296.643 815.509L297.453 815.736C297.368 816.01 297.224 816.252 297.023 816.46C296.822 816.666 296.573 816.827 296.277 816.943C295.982 817.057 295.649 817.114 295.28 817.114ZM301.1 817.114C300.574 817.114 300.121 816.998 299.74 816.766C299.361 816.531 299.069 816.205 298.863 815.786C298.659 815.364 298.557 814.874 298.557 814.315C298.557 813.757 298.659 813.264 298.863 812.838C299.069 812.41 299.355 812.076 299.722 811.837C300.091 811.595 300.522 811.474 301.015 811.474C301.299 811.474 301.579 811.522 301.856 811.616C302.133 811.711 302.385 811.865 302.613 812.078C302.84 812.289 303.021 812.568 303.156 812.916C303.291 813.264 303.358 813.693 303.358 814.202V814.557H299.154V813.832H302.506C302.506 813.525 302.445 813.25 302.321 813.009C302.201 812.767 302.028 812.576 301.803 812.437C301.58 812.297 301.318 812.227 301.015 812.227C300.681 812.227 300.392 812.31 300.148 812.476C299.907 812.639 299.721 812.852 299.591 813.115C299.46 813.378 299.395 813.66 299.395 813.96V814.443C299.395 814.855 299.466 815.204 299.608 815.491C299.753 815.775 299.953 815.991 300.209 816.141C300.464 816.287 300.761 816.361 301.1 816.361C301.32 816.361 301.519 816.33 301.696 816.268C301.876 816.205 302.031 816.11 302.162 815.984C302.292 815.857 302.392 815.698 302.464 815.509L303.273 815.736C303.188 816.01 303.045 816.252 302.843 816.46C302.642 816.666 302.394 816.827 302.098 816.943C301.802 817.057 301.469 817.114 301.1 817.114ZM307.005 811.545V812.256H304.179V811.545H307.005ZM305.003 810.239H305.841V815.438C305.841 815.674 305.875 815.852 305.944 815.97C306.015 816.086 306.105 816.164 306.214 816.205C306.325 816.242 306.442 816.261 306.565 816.261C306.657 816.261 306.733 816.257 306.792 816.247C306.852 816.235 306.899 816.226 306.934 816.219L307.105 816.972C307.048 816.993 306.969 817.014 306.867 817.036C306.765 817.059 306.636 817.071 306.48 817.071C306.243 817.071 306.011 817.02 305.784 816.918C305.559 816.817 305.372 816.661 305.223 816.453C305.076 816.245 305.003 815.982 305.003 815.665V810.239ZM313.65 809.386L311.306 818.094H310.539L312.883 809.386H313.65ZM320.211 814.727H321.177L321.987 815.793L322.2 816.077L323.407 817.682H322.441L321.646 816.616L321.447 816.347L320.211 814.727ZM323.706 813.364C323.706 814.131 323.567 814.794 323.29 815.352C323.013 815.911 322.633 816.342 322.15 816.645C321.667 816.948 321.116 817.099 320.495 817.099C319.875 817.099 319.323 816.948 318.84 816.645C318.358 816.342 317.978 815.911 317.701 815.352C317.424 814.794 317.285 814.131 317.285 813.364C317.285 812.597 317.424 811.934 317.701 811.375C317.978 810.816 318.358 810.385 318.84 810.082C319.323 809.779 319.875 809.628 320.495 809.628C321.116 809.628 321.667 809.779 322.15 810.082C322.633 810.385 323.013 810.816 323.29 811.375C323.567 811.934 323.706 812.597 323.706 813.364ZM322.853 813.364C322.853 812.734 322.748 812.202 322.537 811.769C322.329 811.336 322.046 811.008 321.688 810.786C321.333 810.563 320.936 810.452 320.495 810.452C320.055 810.452 319.656 810.563 319.299 810.786C318.943 811.008 318.661 811.336 318.45 811.769C318.242 812.202 318.137 812.734 318.137 813.364C318.137 813.993 318.242 814.525 318.45 814.958C318.661 815.391 318.943 815.719 319.299 815.942C319.656 816.164 320.055 816.276 320.495 816.276C320.936 816.276 321.333 816.164 321.688 815.942C322.046 815.719 322.329 815.391 322.537 814.958C322.748 814.525 322.853 813.993 322.853 813.364ZM327.431 817H325.186V809.727H327.53C328.236 809.727 328.839 809.873 329.341 810.164C329.843 810.453 330.228 810.868 330.495 811.411C330.763 811.95 330.897 812.597 330.897 813.349C330.897 814.107 330.762 814.759 330.492 815.306C330.222 815.851 329.829 816.27 329.313 816.563C328.797 816.854 328.169 817 327.431 817ZM326.067 816.219H327.374C327.975 816.219 328.474 816.103 328.869 815.871C329.264 815.639 329.559 815.308 329.753 814.88C329.947 814.451 330.044 813.941 330.044 813.349C330.044 812.762 329.948 812.257 329.757 811.833C329.565 811.407 329.278 811.08 328.897 810.853C328.516 810.623 328.041 810.509 327.473 810.509H326.067V816.219ZM331.673 810.509V809.727H337.128V810.509H334.841V817H333.96V810.509H331.673ZM343.402 817.114C342.891 817.114 342.45 816.993 342.081 816.751C341.712 816.51 341.427 816.177 341.229 815.754C341.03 815.33 340.93 814.846 340.93 814.301C340.93 813.747 341.032 813.258 341.236 812.835C341.442 812.408 341.728 812.076 342.095 811.837C342.464 811.595 342.895 811.474 343.388 811.474C343.771 811.474 344.117 811.545 344.425 811.688C344.732 811.83 344.985 812.028 345.181 812.284C345.378 812.54 345.499 812.838 345.547 813.179H344.709C344.645 812.93 344.503 812.71 344.283 812.518C344.065 812.324 343.771 812.227 343.402 812.227C343.075 812.227 342.789 812.312 342.543 812.483C342.299 812.651 342.108 812.889 341.971 813.197C341.836 813.502 341.768 813.861 341.768 814.273C341.768 814.694 341.835 815.061 341.967 815.374C342.102 815.686 342.292 815.929 342.535 816.102C342.782 816.274 343.07 816.361 343.402 816.361C343.62 816.361 343.817 816.323 343.995 816.247C344.172 816.171 344.323 816.062 344.446 815.92C344.569 815.778 344.657 815.608 344.709 815.409H345.547C345.499 815.731 345.382 816.021 345.195 816.279C345.011 816.535 344.766 816.738 344.46 816.89C344.157 817.039 343.804 817.114 343.402 817.114ZM348.988 817.114C348.495 817.114 348.063 816.996 347.692 816.762C347.322 816.528 347.034 816.2 346.825 815.778C346.619 815.357 346.516 814.865 346.516 814.301C346.516 813.733 346.619 813.237 346.825 812.813C347.034 812.389 347.322 812.06 347.692 811.826C348.063 811.592 348.495 811.474 348.988 811.474C349.48 811.474 349.911 811.592 350.28 811.826C350.652 812.06 350.941 812.389 351.147 812.813C351.355 813.237 351.459 813.733 351.459 814.301C351.459 814.865 351.355 815.357 351.147 815.778C350.941 816.2 350.652 816.528 350.28 816.762C349.911 816.996 349.48 817.114 348.988 817.114ZM348.988 816.361C349.362 816.361 349.67 816.265 349.911 816.073C350.153 815.881 350.331 815.629 350.447 815.317C350.563 815.004 350.621 814.666 350.621 814.301C350.621 813.937 350.563 813.597 350.447 813.282C350.331 812.967 350.153 812.713 349.911 812.518C349.67 812.324 349.362 812.227 348.988 812.227C348.614 812.227 348.306 812.324 348.065 812.518C347.823 812.713 347.644 812.967 347.528 813.282C347.412 813.597 347.354 813.937 347.354 814.301C347.354 814.666 347.412 815.004 347.528 815.317C347.644 815.629 347.823 815.881 348.065 816.073C348.306 816.265 348.614 816.361 348.988 816.361ZM352.739 817V811.545H353.548V812.369H353.605C353.705 812.099 353.885 811.88 354.145 811.712C354.405 811.544 354.699 811.46 355.026 811.46C355.087 811.46 355.164 811.461 355.256 811.464C355.349 811.466 355.419 811.47 355.466 811.474V812.327C355.438 812.32 355.372 812.309 355.271 812.295C355.171 812.278 355.066 812.27 354.955 812.27C354.689 812.27 354.453 812.326 354.244 812.437C354.038 812.546 353.875 812.697 353.754 812.891C353.636 813.083 353.577 813.302 353.577 813.548V817H352.739ZM356.459 819.045V811.545H357.269V812.412H357.369C357.43 812.317 357.515 812.196 357.624 812.05C357.735 811.901 357.894 811.768 358.1 811.652C358.308 811.534 358.59 811.474 358.945 811.474C359.405 811.474 359.809 811.589 360.16 811.819C360.51 812.049 360.784 812.374 360.98 812.795C361.177 813.217 361.275 813.714 361.275 814.287C361.275 814.865 361.177 815.365 360.98 815.789C360.784 816.21 360.511 816.537 360.163 816.769C359.815 816.999 359.414 817.114 358.959 817.114C358.609 817.114 358.329 817.056 358.118 816.94C357.907 816.821 357.745 816.687 357.631 816.538C357.518 816.387 357.43 816.261 357.369 816.162H357.297V819.045H356.459ZM357.283 814.273C357.283 814.685 357.344 815.048 357.464 815.363C357.585 815.675 357.762 815.92 357.994 816.098C358.226 816.273 358.51 816.361 358.846 816.361C359.196 816.361 359.489 816.268 359.723 816.084C359.96 815.897 360.137 815.646 360.256 815.331C360.376 815.014 360.437 814.661 360.437 814.273C360.437 813.889 360.378 813.544 360.259 813.236C360.143 812.926 359.967 812.681 359.73 812.501C359.496 812.318 359.201 812.227 358.846 812.227C358.505 812.227 358.218 812.314 357.986 812.487C357.754 812.657 357.579 812.896 357.461 813.204C357.342 813.509 357.283 813.866 357.283 814.273ZM367.937 809.386L365.593 818.094H364.826L367.17 809.386H367.937ZM371.558 815.509V814.784L374.754 809.727H375.28V810.849H374.924L372.51 814.67V814.727H376.814V815.509H371.558ZM374.981 817V815.288V814.951V809.727H375.819V817H374.981ZM378.144 817V816.361L380.545 813.733C380.827 813.425 381.059 813.158 381.241 812.93C381.423 812.701 381.558 812.485 381.646 812.284C381.736 812.08 381.781 811.867 381.781 811.645C381.781 811.389 381.719 811.168 381.596 810.981C381.475 810.794 381.31 810.649 381.099 810.548C380.888 810.446 380.652 810.395 380.389 810.395C380.109 810.395 379.866 810.453 379.657 810.569C379.451 810.683 379.291 810.842 379.178 811.048C379.067 811.254 379.011 811.496 379.011 811.773H378.173C378.173 811.347 378.271 810.973 378.468 810.651C378.664 810.329 378.932 810.078 379.27 809.898C379.611 809.718 379.993 809.628 380.417 809.628C380.843 809.628 381.221 809.718 381.55 809.898C381.879 810.078 382.137 810.32 382.324 810.626C382.511 810.931 382.605 811.271 382.605 811.645C382.605 811.912 382.556 812.174 382.459 812.43C382.364 812.683 382.199 812.966 381.962 813.278C381.728 813.589 381.402 813.967 380.985 814.415L379.352 816.162V816.219H382.733V817H378.144Z" fill="black"/>
<defs>
<filter id="filter0_i_24_38" x="22.3549" y="22" width="561.29" height="780" filterUnits="userSpaceOnUse" color-interpolation-filters="sRGB">
<feFlood flood-opacity="0" result="BackgroundImageFix"/>
<feBlend mode="normal" in="SourceGraphic" in2="BackgroundImageFix" result="shape"/>
<feColorMatrix in="SourceAlpha" type="matrix" values="0 0 0 0 0 0 0 0 0 0 0 0 0 0 0 0 0 0 127 0" result="hardAlpha"/>
<feMorphology radius="2" operator="erode" in="SourceAlpha" result="effect1_innerShadow_24_38"/>
<feOffset/>
<feGaussianBlur stdDeviation="2"/>
<feComposite in2="hardAlpha" operator="arithmetic" k2="-1" k3="1"/>
<feColorMatrix type="matrix" values="0 0 0 0 0 0 0 0 0 0 0 0 0 0 0 0 0 0 0.25 0"/>
<feBlend mode="normal" in2="shape" result="effect1_innerShadow_24_38"/>
</filter>
<filter id="filter1_d_24_38" x="44.5484" y="72" width="520.903" height="348" filterUnits="userSpaceOnUse" color-interpolation-filters="sRGB">
<feFlood flood-opacity="0" result="BackgroundImageFix"/>
<feColorMatrix in="SourceAlpha" type="matrix" values="0 0 0 0 0 0 0 0 0 0 0 0 0 0 0 0 0 0 127 0" result="hardAlpha"/>
<feMorphology radius="2" operator="dilate" in="SourceAlpha" result="effect1_dropShadow_24_38"/>
<feOffset dx="2" dy="2"/>
<feGaussianBlur stdDeviation="1"/>
<feComposite in2="hardAlpha" operator="out"/>
<feColorMatrix type="matrix" values="0 0 0 0 0 0 0 0 0 0 0 0 0 0 0 0 0 0 0.25 0"/>
<feBlend mode="normal" in2="BackgroundImageFix" result="effect1_dropShadow_24_38"/>
<feBlend mode="normal" in="SourceGraphic" in2="effect1_dropShadow_24_38" result="shape"/>
</filter>
<linearGradient id="paint0_linear_24_38" x1="559" y1="74" x2="47" y2="414" gradientUnits="userSpaceOnUse">
<stop offset="0.182292" stop-color="white"/>
<stop offset="0.25" stop-color="#717171"/>
<stop offset="0.369792" stop-color="white"/>
<stop offset="0.744792" stop-color="#434343"/>
<stop offset="1" stop-color="white"/>
</linearGradient>
</defs>
</svg>
