<svg xmlns="http://www.w3.org/2000/svg" viewBox="7.01 305.686 596.34 180.796"><path fill="#e64280" d="M151.13 364.654c-7.907-11.865-21.13-18.944-35.376-18.944-13.38 0-25.325 6.22-33.12 15.92-8.036-10.025-20.154-15.92-33.134-15.92-23.432 0-42.492 19.06-42.492 42.487v70.63H25.73v-70.63c0-13.102 10.66-23.764 23.767-23.764 7.967 0 15.368 3.963 19.796 10.607 2.598 3.896 3.972 8.446 3.972 13.155v70.63H91.99v-70.628c0-13.102 10.66-23.764 23.763-23.764 7.97 0 15.37 3.963 19.796 10.607 2.6 3.896 3.97 8.446 3.97 13.155v70.63h18.72v-70.628c0-8.415-2.46-16.56-7.12-23.54"/><path fill="#464648" d="M481.73 317.217c0 5.907-4.79 10.687-10.69 10.687-5.905 0-10.69-4.78-10.69-10.687 0-5.903 4.785-10.69 10.69-10.69 5.9 0 10.69 4.79 10.69 10.692m-20.053 27.88H480.4v113.21h-18.723V345.1zm89.442 95.1c-21.28 0-38.59-17.31-38.59-38.58s17.31-38.58 38.58-38.58c12.01 0 23.24 5.57 30.53 15.01h21.7c-1.28-2.84-2.78-5.57-4.53-8.19-10.67-16-28.5-25.55-47.71-25.55-31.6 0-57.31 25.7-57.31 57.3 0 31.59 25.71 57.29 57.302 57.29 19.267 0 37.134-9.6 47.787-25.67 1.71-2.58 3.185-5.28 4.445-8.06h-21.7c-7.29 9.44-18.5 15.01-30.53 15.01"/><path fill="#e64280" d="M271.17 395.834c0-27.91-22.705-50.616-50.61-50.616-16.966 0-32.72 8.44-42.14 22.573-5.542 8.32-8.47 18.02-8.47 28.05v4.88l.188 4.93c3.294 40.13 37.21 51.63 65.14 61.89 13 4.78 25.277 9.29 32.91 16.24l2.98 2.72v-23.35l-.872-.52c-5.546-3.29-13.264-5.97-22.205-9.07-24.25-8.42-56.62-18.74-58.56-47.9h81.64v-9.81zm-82.69-6.638l.527-2.083c.898-3.585 2.398-6.963 4.452-10.045 6.04-9.073 16.16-14.495 27.05-14.495 14.9 0 27.85 10.087 31.5 24.534l.52 2.09h-64.06z"/><path fill="#464648" d="M277.737 405.64h81.646c-1.936 29.157-34.308 39.487-58.564 47.902-8.95 3.104-16.67 5.785-22.21 9.073l-.88.52v23.343l2.98-2.72c7.63-6.95 19.91-11.464 32.91-16.24 27.93-10.253 61.84-21.752 65.14-61.882l.19-4.93v-4.88c0-10.03-2.93-19.726-8.48-28.042-9.43-14.133-25.18-22.573-42.148-22.573-27.904 0-50.61 22.71-50.61 50.62v9.82zm18.63-16.444l.525-2.09c3.646-14.445 16.6-24.533 31.504-24.533 10.894 0 21.004 5.42 27.055 14.495 2.06 3.086 3.56 6.463 4.46 10.043l.53 2.09h-64.06zm153.295-44.098H418.43v-39.412h-18.808v39.412h-16.998v18.808h16.998v94.403l18.808.01V363.9h31.232"/></svg>
